<svg width="800px" height="800px" viewBox="0 0 64 64" data-name="Layer 1" id="Layer_1" xmlns="http://www.w3.org/2000/svg"><defs><style>.cls-1{fill:#ffb300;}.cls-2{fill:#0074ff;}</style></defs><title/><path class="cls-1" d="M40.6,22.83H23.4a2,2,0,0,1-2-2V16A10.59,10.59,0,0,1,39.49,8.5,10.51,10.51,0,0,1,42.6,16v4.83A2,2,0,0,1,40.6,22.83Zm-15.2-4H38.6V16a6.6,6.6,0,1,0-13.2,0Z"/><path class="cls-1" d="M39.82,48.61H24.18a2,2,0,1,1,0-4H39.82a2,2,0,1,1,0,4Z"/><path class="cls-2" d="M50.26,58.61H13.74a2,2,0,0,1-2-2.36l6.38-35.78a2,2,0,0,1,2-1.64H43.88a2,2,0,0,1,2,1.64l3.36,18.88a2,2,0,1,1-3.93.7L42.21,22.83H21.79L16.13,54.61H47.86l-.77-4.16A2,2,0,1,1,51,49.73l1.21,6.51a2,2,0,0,1-2,2.37Z"/></svg>